<svg version="1.1" viewBox="132 184.5 676.5 166.8" fill="none" stroke="none" stroke-linecap="square" stroke-miterlimit="10" xmlns:xlink="http://www.w3.org/1999/xlink" xmlns="http://www.w3.org/2000/svg"><g><path fill="#3d85c6" d="m164.53242 299.79337c-4.356949 -0.25326538 -13.903763 -1.7869568 -18.062988 -0.9790039c-4.1592255 0.8079529 -6.85083 4.376648 -6.892395 5.826782c-0.041549683 1.4501343 3.3215332 2.0061035 6.643051 2.8740234c3.321518 0.8678894 10.563431 1.2261353 13.286087 2.333313c2.7226562 1.1071777 1.4343872 4.100189 3.0498657 4.309723c1.6154938 0.20953369 4.9671936 -0.7484741 6.643051 -3.0524902c1.6758575 -2.3040466 4.18985 -8.886261 3.4120636 -10.7716675c-0.777771 -1.885376 -3.7217712 -0.28738403 -8.078735 -0.54067993z" fill-rule="evenodd"/><path fill="#1c4587" d="m321.0377 334.76486c13.1987 0.36447144 40.586273 -2.1373596 79.03641 -2.1373596c38.450104 0 145.61188 2.61203 151.66437 2.1373596c6.05249 -0.4746704 -80.36484 -4.065918 -115.34949 -4.985321c-34.98462 -0.9194336 -75.30713 -0.6413574 -94.55829 -0.53115845c-19.25116 0.110198975 -17.483154 0.2729187 -20.94867 1.1923218c-3.4654846 0.9194031 -13.042999 3.9596863 0.15567017 4.3241577z" fill-rule="evenodd"/><path fill="#3d85c6" d="m225.34483 267.83136c2.1335297 -4.715576 6.5076294 -11.828461 9.745972 -18.0784c3.2383575 -6.249954 6.7034607 -13.043228 9.684143 -19.42125c2.980667 -6.3780212 5.1806335 -13.306778 8.19989 -18.846893c3.0192566 -5.5401154 7.728348 -14.488968 9.915634 -14.393829c2.187317 0.09513855 2.3125305 8.188843 3.208191 14.964645c0.8956299 6.7758026 0.20135498 16.23645 2.1657104 25.69017c1.964386 9.453705 5.71933 21.222702 9.620514 31.03212c3.9012146 9.809418 9.493103 20.49524 13.786682 27.824371c4.2936096 7.329132 7.1280518 11.099396 11.974915 16.150452c4.846863 5.0510864 12.962982 10.760437 17.106323 14.155975c4.1433105 3.3955688 9.011902 4.9839478 7.7535706 6.2173767c-1.2583313 1.233429 -7.6624146 1.5353699 -15.303558 1.183258c-7.6411743 -0.35214233 -17.07962 1.6252747 -30.543427 -3.2960205c-13.463806 -4.9213257 -40.17778 -17.404053 -50.239395 -26.231903c-10.061615 -8.82782 -8.951111 -20.576721 -10.13031 -26.735046c-1.179184 -6.1583557 0.92163086 -5.4994507 3.0551453 -10.215027z" fill-rule="evenodd"/><path fill="#1c4587" d="m162.45206 308.5327c0.6746063 -7.5790405 0.4297943 -19.849457 2.472519 -29.666595c2.0427246 -9.817108 6.157486 -19.090576 9.783844 -29.23616c3.6263733 -10.145569 8.507614 -20.795715 11.974335 -31.637268c3.4667053 -10.841537 4.59552 -33.60092 8.8259735 -33.411972c4.2304535 0.18894958 10.470963 21.841202 16.556717 34.54567c6.0857697 12.704483 11.965775 29.256012 19.957825 41.6812c7.992035 12.425171 16.912949 22.825623 27.9944 32.869843c11.081482 10.0442505 27.525269 21.311615 38.494385 27.395538c10.969147 6.0839233 22.799072 6.757599 27.320435 9.108032c4.5213623 2.3504028 6.848877 3.583313 -0.19229126 4.9944763c-7.0411987 1.4111633 -25.064026 2.9456482 -42.05481 3.4725037c-16.990814 0.526886 -42.570084 0.7460327 -59.88994 -0.31134033c-17.31984 -1.057373 -33.559418 -3.7002258 -44.02916 -6.032959c-10.469757 -2.3327026 -15.920288 -4.0014954 -18.789322 -7.963318c-2.8690338 -3.961853 0.9004822 -8.228607 1.5750885 -15.807648z" fill-rule="evenodd"/><path fill="#1c4587" d="m165.92659 315.20422c-4.548828 0.24417114 -13.799103 -6.195343 -19.452316 -6.347992c-5.6532135 -0.15261841 -14.849777 3.0644226 -14.466995 5.4322205c0.38279724 2.3678284 10.025925 6.176117 16.763687 8.774719c6.7377777 2.5985718 18.969116 6.9654846 23.662933 6.816803c4.693817 -0.14865112 4.277771 -3.9606018 4.4999847 -7.70874c0.222229 -3.748169 -1.3321075 -13.619019 -3.1666565 -14.780182c-1.834549 -1.1611633 -3.291809 7.5689697 -7.840637 7.8131714z" fill-rule="evenodd"/><path fill="#3d85c6" d="m580.3471 316.80765q-6.25 0 -13.75 -2.0l-0.125 29.875q0 2.75 -1.71875 4.5q-1.71875 1.75 -4.40625 1.75q-2.6875 0 -4.40625 -1.75q-1.71875 -1.75 -1.71875 -4.5l0.1875 -25.0l0 -24.9375q-0.1875 -13.6875 -0.9375 -24.9375l-0.9375 -12.6875q0 -4.4374847 1.625 -7.4999847q1.875 -3.6875 5.4375 -3.6875q2.4375 0 4.09375 1.71875q1.65625 1.71875 1.65625 4.21875q0 0.5625 -0.1875 2.0625q-0.3125 1.9375 -0.4375 3.5624847q5.375 -3.6874847 10.375 -5.5312347q5.0 -1.84375 9.5625 -1.84375q12.8125 0 18.75 11.374985q4.6875 9.0 4.6875 23.8125q0 13.5 -7.25 22.25q-7.6875 9.25 -20.5 9.25zm4.3125 -54.1875q-5.75 0 -10.375 2.5625q-3.3125 1.8125 -8.375 6.625q0.8125 14.1875 0.8125 29.8125q6.8125 2.625 13.625 2.625q7.8125 0 11.9375 -5.8125q3.5625 -5.0625 3.5625 -13.125q0 -11.375 -2.78125 -17.03125q-2.78125 -5.65625 -8.40625 -5.65625zm49.5 -27.124985q-3.0 0 -5.1875 -2.125q-2.1875 -2.125 -2.1875 -5.125q0 -3.0 2.1875 -5.125q2.1875 -2.125 5.1875 -2.125q3.0 0 5.15625 2.125q2.15625 2.125 2.15625 5.125q0 3.0 -2.15625 5.125q-2.15625 2.125 -5.15625 2.125zm2.8125 50.749985q0 3.75 0.21875 11.21875q0.21875 7.46875 0.21875 11.21875q0 2.75 -1.6875 4.5q-1.6875 1.75 -4.4375 1.75q-2.6875 0 -4.40625 -1.75q-1.71875 -1.75 -1.71875 -4.5q0 -3.75 -0.21875 -11.21875q-0.21875 -7.46875 -0.21875 -11.21875q0 -5.875 0.625 -14.65625q0.625 -8.78125 0.625 -14.65625q0 -2.8124847 1.71875 -4.5624847q1.71875 -1.75 4.40625 -1.75q2.6875 0 4.40625 1.75q1.71875 1.75 1.71875 4.5624847q0 5.875 -0.625 14.65625q-0.625 8.78125 -0.625 14.65625zm37.0 -20.75l-0.9375 31.0625q0 4.9375 -0.5 14.5q-0.625 6.25 -6.125 6.25q-6.125 0 -6.125 -6.375q0 -7.5625 0.6875 -22.71875q0.6875 -15.15625 0.6875 -22.71875q0 -9.874985 0.3125 -22.593735q0.3125 -12.71875 0.3125 -22.59375q0 -6.25 6.125 -6.25q6.1875 0 6.1875 6.25q0 9.875 -0.3125 22.59375q-0.3125 12.71875 -0.3125 22.593735zm42.625 52.8125q-10.5 0 -18.0625 -7.75q-8.4375 -8.625 -8.875 -23.1875q-0.375 -14.125 7.125 -24.875q8.75 -12.687485 24.375 -12.687485q12.5 0 18.9375 11.437485q5.125 9.25 4.9375 22.25q-0.1875 13.875 -7.25 23.6875q-8.0 11.125 -21.1875 11.125zm3.75 -55.8125q-9.1875 -0.0625 -14.3125 8.75q-4.0625 7.0625 -4.0625 16.125q0 9.0625 4.9375 14.125q4.125 4.1875 9.6875 4.1875q6.5 0 11.1875 -4.75q5.3125 -5.25 5.625 -14.1875q0.875 -24.1875 -13.0625 -24.25zm81.9375 -1.125q-1.3125 0 -3.09375 -0.125q-1.78125 -0.125 -3.09375 -0.125q-1.4375 0 -8.5 0.9375l1.1875 36.9375l0.0625 2.75l0.0625 3.1875q0.25 13.6875 -6.5625 13.6875q-2.5 0 -4.34375 -1.625q-1.84375 -1.625 -1.84375 -4.0625q0 -2.375 0.1875 -7.125q0.1875 -4.75 0.1875 -7.125l-1.25 -36.5q-4.5625 -0.1875 -13.875 -1.0625q-5.5625 -0.75 -5.5625 -6.1874847q0 -2.75 1.6875 -4.5625q1.6875 -1.8125 4.3125 -1.8125l13.125 1.0625q0 -3.1875 -0.28125 -8.53125q-0.28125 -5.34375 -0.28125 -7.71875q0 -2.625 1.8125 -4.34375q1.8125 -1.71875 4.4375 -1.71875q5.625 0 6.5625 9.1875q0.1875 2.3125 0.1875 5.5625l-0.125 3.625l-0.0625 3.875q7.75 -1.0 8.875 -1.0q6.5 0 8.5 0.625q3.8125 1.25 3.8125 5.875q0 2.7499847 -1.71875 4.5312347q-1.71875 1.78125 -4.40625 1.78125z" fill-rule="nonzero"/><path fill="#1c4587" d="m342.53445 318.74515q-1.1875 0 -4.3125 -2.75q-2.8125 -2.5625 -4.1875 -4.5625q-6.0 3.25 -10.5625 4.90625q-4.5625 1.65625 -7.625 1.65625q-14.625 0 -21.3125 -8.25q-6.3125 -7.75 -6.3125 -23.75q0 -15.125 10.40625 -25.875q10.40625 -10.749985 24.84375 -10.749985q5.4375 0 12.1875 2.8125q8.5 3.5 8.5 8.437485q0 1.6875 -1.25 3.0q-0.625 2.375 -0.96875 7.8125q-0.34375 5.4375 -0.40625 13.9375q-0.0625 7.75 1.0625 12.25q0.625 2.75 3.9375 11.0q0.4375 1.125 1.4375 3.3125l0.375 1.0625q0 2.5 -1.75 4.125q-1.75 1.625 -4.0625 1.625zm-13.0 -43.4375q0 -2.6875 0.34375 -5.84375q0.34375 -3.15625 1.03125 -6.71875q-2.3125 -1.1875 -3.96875 -1.75q-1.65625 -0.5625 -2.65625 -0.5625q-9.6875 0 -16.71875 7.90625q-7.03125 7.90625 -7.03125 18.21875q0 10.25 3.625 15.375q3.625 5.125 10.875 5.125q6.0 0 10.1875 -2.1875q2.25 -1.1875 6.3125 -4.75q-2.0 -16.5625 -2.0 -24.8125zm77.625 43.75q-5.375 0 -6.0625 -5.875l-1.75 -13.6875q-0.875 -7.3125 -0.875 -13.6875q0 -1.75 0.21875 -5.9375q0.21875 -4.1875 0.21875 -5.9375q0 -13.5 -5.0 -13.5q-7.0 0 -13.375 8.3125q-5.75 7.5625 -9.0 19.125q-0.125 2.4375 -0.5625 6.125q-0.375 3.125 -0.375 6.0625q0 1.875 0.375 5.625q0.375 3.75 0.375 5.625q0 2.8125 -1.71875 4.5625q-1.71875 1.75 -4.40625 1.75q-2.75 0 -4.4375 -1.75q-1.6875 -1.75 -1.6875 -4.5625q0 -1.875 -0.40625 -5.625q-0.40625 -3.75 -0.40625 -5.625q0 -6.4375 0.90625 -17.84375q0.90625 -11.40625 0.90625 -17.84375q0 -2.0 -0.21875 -5.9375q-0.21875 -3.9374847 -0.21875 -5.9374847q0 -2.6875 1.78125 -4.40625q1.78125 -1.71875 4.40625 -1.71875q5.75 0 6.3125 8.125l0.1875 7.3124847q10.5 -13.999985 21.5625 -13.999985q10.0 0 13.9375 8.812485q2.6875 5.875 2.9375 17.375l0 6.3125l-0.0625 5.8125q0 5.1875 1.34375 13.40625q1.34375 8.21875 1.34375 13.34375q0 2.75 -1.78125 4.46875q-1.78125 1.71875 -4.46875 1.71875zm60.875 -57.6875q-1.3125 0 -3.09375 -0.125q-1.78125 -0.125 -3.09375 -0.125q-1.4375 0 -8.5 0.9375l1.1875 36.9375l0.0625 2.75l0.0625 3.1875q0.25 13.6875 -6.5625 13.6875q-2.5 0 -4.34375 -1.625q-1.84375 -1.625 -1.84375 -4.0625q0 -2.375 0.1875 -7.125q0.1875 -4.75 0.1875 -7.125l-1.25 -36.5q-4.5625 -0.1875 -13.875 -1.0625q-5.5625 -0.75 -5.5625 -6.1874847q0 -2.75 1.6875 -4.5625q1.6875 -1.8125 4.3125 -1.8125l13.125 1.0625q0 -3.1875 -0.28125 -8.53125q-0.28125 -5.34375 -0.28125 -7.71875q0 -2.625 1.8125 -4.34375q1.8125 -1.71875 4.4375 -1.71875q5.625 0 6.5625 9.1875q0.1875 2.3125 0.1875 5.5625l-0.125 3.625l-0.0625 3.875q7.75 -1.0 8.875 -1.0q6.5 0 8.5 0.625q3.8125 1.25 3.8125 5.875q0 2.7499847 -1.71875 4.5312347q-1.71875 1.78125 -4.40625 1.78125zm67.31247 57.375q-1.1875 0 -4.3125 -2.75q-2.8125 -2.5625 -4.1875 -4.5625q-6.0 3.25 -10.5625 4.90625q-4.5624695 1.65625 -7.6249695 1.65625q-14.625 0 -21.3125 -8.25q-6.3125 -7.75 -6.3125 -23.75q0 -15.125 10.40625 -25.875q10.40625 -10.749985 24.84372 -10.749985q5.4375 0 12.1875 2.8125q8.5 3.5 8.5 8.437485q0 1.6875 -1.25 3.0q-0.625 2.375 -0.96875 7.8125q-0.34375 5.4375 -0.40625 13.9375q-0.0625 7.75 1.0625 12.25q0.625 2.75 3.9375 11.0q0.4375 1.125 1.4375 3.3125l0.375 1.0625q0 2.5 -1.75 4.125q-1.75 1.625 -4.0625 1.625zm-13.0 -43.4375q0 -2.6875 0.34375 -5.84375q0.34375 -3.15625 1.03125 -6.71875q-2.3125 -1.1875 -3.96875 -1.75q-1.65625 -0.5625 -2.65625 -0.5625q-9.6874695 0 -16.71872 7.90625q-7.03125 7.90625 -7.03125 18.21875q0 10.25 3.625 15.375q3.625 5.125 10.875 5.125q5.9999695 0 10.1874695 -2.1875q2.25 -1.1875 6.3125 -4.75q-2.0 -16.5625 -2.0 -24.8125z" fill-rule="nonzero"/></g></svg>